<svg width="48" height="48" viewBox="0 0 48 48" fill="none" xmlns="http://www.w3.org/2000/svg">
<path fill-rule="evenodd" clip-rule="evenodd" d="M48.0025 2C48.0025 1.46957 47.7918 0.96086 47.4167 0.585787C47.0417 0.210714 46.533 0 46.0025 0H22.0025C21.4721 0 20.9634 0.210714 20.5883 0.585787C20.2132 0.96086 20.0025 1.46957 20.0025 2C20.0025 2.53043 20.2132 3.03914 20.5883 3.41421C20.9634 3.78929 21.4721 4 22.0025 4H41.1745L0.586526 44.584C0.400574 44.7699 0.25307 44.9907 0.152433 45.2337C0.051797 45.4766 0 45.737 0 46C0 46.263 0.051797 46.5234 0.152433 46.7663C0.25307 47.0093 0.400574 47.23 0.586526 47.416C0.772478 47.6019 0.993235 47.7495 1.23619 47.8501C1.47915 47.9507 1.73955 48.0025 2.00253 48.0025C2.2655 48.0025 2.5259 47.9507 2.76886 47.8501C3.01182 47.7495 3.23257 47.6019 3.41853 47.416L44.0025 6.828V26C44.0025 26.5304 44.2132 27.0391 44.5883 27.4142C44.9634 27.7893 45.4721 28 46.0025 28C46.533 28 47.0417 27.7893 47.4167 27.4142C47.7918 27.0391 48.0025 26.5304 48.0025 26V2Z" fill="#FFF9F4"/>
</svg>
