<svg width="72" height="72" viewBox="0 0 72 72" fill="none" xmlns="http://www.w3.org/2000/svg">
<rect width="72" height="72" fill="#363231"/>
<path d="M20.7124 52.2739H28.6028L49.3151 31.5616C49.8332 31.0435 50.2442 30.4285 50.5246 29.7515C50.805 29.0746 50.9493 28.3491 50.9493 27.6164C50.9493 26.8837 50.805 26.1582 50.5246 25.4813C50.2442 24.8044 49.8332 24.1893 49.3151 23.6712C48.7971 23.1531 48.182 22.7421 47.5051 22.4618C46.8282 22.1814 46.1026 22.037 45.3699 22.037C44.6372 22.037 43.9117 22.1814 43.2348 22.4618C42.5579 22.7421 41.9428 23.1531 41.4247 23.6712L20.7124 44.3835V52.2739Z" stroke="#FFF9F4" stroke-width="2.36712" stroke-linecap="round" stroke-linejoin="round"/>
<path d="M39.4521 25.6439L47.3426 33.5343" stroke="#FFF9F4" stroke-width="2.36712" stroke-linecap="round" stroke-linejoin="round"/>
<path d="M44.3838 50.3014H56.2194" stroke="#FFF9F4" stroke-width="2.36712" stroke-linecap="round" stroke-linejoin="round"/>
<path d="M50.3013 44.3835V56.2192" stroke="#FFF9F4" stroke-width="2.36712" stroke-linecap="round" stroke-linejoin="round"/>
</svg>
