<svg width="34" height="35" viewBox="0 0 34 35" fill="none" xmlns="http://www.w3.org/2000/svg">
<path opacity="0.987" fill-rule="evenodd" clip-rule="evenodd" d="M14.8981 0.151875C16.7106 -0.050625 17.7831 -0.050625 19.7306 0.151875C23.1779 0.662113 26.3736 2.25559 28.8556 4.70188C27.1784 6.28721 25.5233 7.8957 23.8906 9.52687C20.7639 6.87687 17.2739 6.26521 13.4206 7.69188C10.5939 8.99188 8.62561 11.0985 7.51561 14.0119C5.70171 12.6615 3.91144 11.2796 2.14561 9.86687C2.02289 9.80228 1.88273 9.77863 1.74561 9.79937C4.55061 4.39104 8.93394 1.17437 14.8956 0.149375" fill="#F44336"/>
<path opacity="0.997" fill-rule="evenodd" clip-rule="evenodd" d="M1.74063 9.79948C1.8823 9.77781 2.01646 9.80031 2.14313 9.86698C3.90896 11.2797 5.69923 12.6616 7.51313 14.012C7.22769 15.1471 7.04776 16.3062 6.97563 17.4745C7.0373 18.6045 7.21646 19.7136 7.51313 20.802L1.87563 25.2895C-0.57937 20.1595 -0.62437 14.9961 1.74063 9.79948Z" fill="#FFC107"/>
<path opacity="0.999" fill-rule="evenodd" clip-rule="evenodd" d="M28.5882 30.7244C26.8328 29.1763 24.9951 27.7242 23.0832 26.3744C24.9998 25.021 26.1632 23.1644 26.5732 20.8044H17.1807V14.2819C22.5973 14.2369 28.0115 14.2827 33.4232 14.4194C34.4498 19.9944 33.264 25.021 29.8657 29.4994C29.4616 29.9289 29.0335 30.3378 28.5882 30.7244Z" fill="#448AFF"/>
<path opacity="0.993" fill-rule="evenodd" clip-rule="evenodd" d="M7.51323 20.8044C9.56323 25.8994 13.3216 28.2778 18.7882 27.9394C20.3228 27.7618 21.7941 27.2257 23.0832 26.3744C24.9966 27.7278 26.8316 29.1778 28.5882 30.7244C25.8049 33.2256 22.256 34.7096 18.5207 34.9344C17.6721 35.0023 16.8194 35.0023 15.9707 34.9344C9.6074 34.1844 4.90907 30.9694 1.87573 25.2894L7.51323 20.8044Z" fill="#43A047"/>
</svg>
