<svg width="95" height="93" viewBox="0 0 95 93" fill="none" xmlns="http://www.w3.org/2000/svg">
<path d="M87.1826 57.6426C87.1827 59.0232 88.302 60.1425 89.6826 60.1426H91.5938V63.4072C91.594 64.7877 92.7132 65.9072 94.0938 65.9072V72.4355C92.713 72.4355 91.5938 73.5548 91.5938 74.9355V80.6992C91.5938 81.2937 91.533 81.8824 91.416 82.457C91.2526 83.2595 91.4956 84.0489 92.001 84.6172C91.3203 84.6462 90.6592 84.95 90.1963 85.499L90.041 85.7031C89.7924 86.0671 89.5158 86.4155 89.2119 86.7441L88.8984 87.0664C88.5736 87.3847 88.2268 87.6772 87.8613 87.9424L87.4902 88.1982C86.7797 88.6627 86.3837 89.4271 86.3594 90.2158C85.7924 89.6661 84.9757 89.3916 84.1416 89.5537C83.5502 89.6686 82.9444 89.7275 82.332 89.7275H77.9209C76.5404 89.7276 75.4211 90.8471 75.4209 92.2275H71.5996C71.5994 90.847 70.4802 89.7275 69.0996 89.7275H60.2783C58.8979 89.7277 57.7786 90.8471 57.7783 92.2275H53.957C53.9568 90.847 52.8376 89.7275 51.457 89.7275H42.6357C41.2553 89.7277 40.136 90.8471 40.1357 92.2275H36.3145C36.3142 90.847 35.195 89.7275 33.8145 89.7275H24.9932C23.6128 89.7277 22.4934 90.8472 22.4932 92.2275H18.6719C18.6716 90.847 17.5524 89.7275 16.1719 89.7275H11.7617C11.1491 89.7275 10.5428 89.6687 9.95117 89.5537C9.11683 89.3917 8.2994 89.6656 7.73242 90.2158C7.7081 89.4272 7.31402 88.6627 6.60352 88.1982L6.23242 87.9424C5.86692 87.6772 5.52012 87.3847 5.19531 87.0664L4.88184 86.7441C4.5779 86.4155 4.30138 86.0671 4.05273 85.7031L3.89746 85.499C3.43436 84.9497 2.77273 84.6461 2.0918 84.6172C2.59732 84.0489 2.84023 83.2597 2.67676 82.457C2.55975 81.8824 2.5 81.2937 2.5 80.6992V74.9355C2.5 73.5548 1.38071 72.4355 0 72.4355V71.6709H4.41016C5.79087 71.6709 6.91016 70.5516 6.91016 69.1709H10.7314C10.7314 70.5515 11.8509 71.6707 13.2314 71.6709H22.0527C23.4334 71.6709 24.5527 70.5516 24.5527 69.1709H28.374C28.374 70.5515 29.4935 71.6707 30.874 71.6709H39.6953C41.076 71.6709 42.1953 70.5516 42.1953 69.1709H46.0166C46.0166 70.5515 47.136 71.6707 48.5166 71.6709H57.3379C58.7186 71.6709 59.8379 70.5516 59.8379 69.1709H63.6592C63.6592 70.5515 64.7786 71.6708 66.1592 71.6709H70.5703C71.5859 71.6708 72.5008 71.0565 72.8848 70.1162C73.2447 69.2348 73.0708 68.2313 72.4502 67.5234L72.3203 67.3857L68.9492 64.0811L68.7568 63.9111C67.7671 63.1207 66.3191 63.1915 65.4131 64.1152L62.2412 61.0078C62.4914 60.7525 62.6752 60.4568 62.7939 60.1426H63.2188C64.513 60.1426 65.5779 59.1589 65.7061 57.8984L65.7188 57.6426H69.54C69.5401 59.0232 70.6595 60.1425 72.04 60.1426H80.8613C82.1556 60.1426 83.2205 59.1589 83.3486 57.8984L83.3613 57.6426H87.1826ZM22.4932 0C22.4932 1.38058 23.6126 2.49979 24.9932 2.5H33.8145C35.1952 2.5 36.3145 1.38071 36.3145 0H40.1357C40.1357 1.3806 41.2552 2.49983 42.6357 2.5H51.457C52.8377 2.5 53.957 1.38071 53.957 0H57.7783C57.7783 1.38063 58.8977 2.49986 60.2783 2.5H69.0996C70.4803 2.5 71.5996 1.38071 71.5996 0H75.4209C75.4209 1.38065 76.5403 2.4999 77.9209 2.5H82.332C82.9444 2.50002 83.5502 2.55894 84.1416 2.67383C84.976 2.83597 85.7923 2.56095 86.3594 2.01074C86.3833 2.79992 86.7792 3.56551 87.4902 4.03027C87.9935 4.35931 88.4655 4.73777 88.8984 5.16211C89.3276 5.58278 89.7095 6.03993 90.041 6.52539C90.5035 7.20248 91.2402 7.5779 92.001 7.61035C91.4955 8.1786 91.2526 8.96795 91.416 9.77051C91.5331 10.3452 91.5937 10.9338 91.5938 11.5283V17.293C91.5939 18.6736 92.7131 19.793 94.0938 19.793V26.3213C92.713 26.3213 91.5938 27.4406 91.5938 28.8213V40.3496C91.5938 41.7303 92.713 42.8496 94.0938 42.8496V49.3779C92.7131 49.3779 91.5939 50.4974 91.5938 51.8779V52.8652C91.003 52.9048 90.4237 53.1505 89.9766 53.6064L88.8838 52.5352C89.8498 51.5491 89.8335 49.9673 88.8477 49.001L86.5166 46.7148H86.5156C85.8463 46.059 85.1184 45.475 84.3438 44.9688L84.1221 44.8398C83.1606 44.3423 81.9952 44.5283 81.2344 45.2686C81.2005 44.1259 80.3831 43.1178 79.2139 42.8906C78.3102 42.7151 77.3853 42.625 76.4512 42.625C75.6336 42.625 74.8227 42.6942 74.0273 42.8291L73.6875 42.8906C72.5182 43.1178 71.6999 44.1258 71.666 45.2686C70.9051 44.5287 69.7405 44.3423 68.7793 44.8398L68.5586 44.9688C67.8808 45.4117 67.238 45.9138 66.6396 46.4717L66.3857 46.7148L64.0537 49.001C63.0681 49.9672 63.0519 51.5491 64.0176 52.5352L62.9248 53.6064C61.9583 52.621 60.3755 52.605 59.3896 53.5713L58.8076 54.1416L55.4639 50.8643L55.2725 50.6943C54.2827 49.9034 52.8348 49.9744 51.9287 50.8984L48.7559 47.79C49.7223 46.804 49.7077 45.2214 48.7217 44.2549L45.3506 40.9512V40.9502L45.0967 40.708C44.4982 40.15 43.8556 39.6481 43.1777 39.2051L42.957 39.0752C41.9958 38.5775 40.8303 38.764 40.0693 39.5039C40.0353 38.3615 39.2177 37.3543 38.0488 37.127L37.709 37.0645C36.9135 36.9295 36.1028 36.8604 35.2852 36.8604C34.3508 36.8604 33.4253 36.9514 32.5215 37.127C31.3521 37.3542 30.5336 38.362 30.5 39.5049C29.7391 38.7649 28.5746 38.5776 27.6133 39.0752L27.3926 39.2051C26.6179 39.7114 25.8891 40.2943 25.2197 40.9502V40.9512L21.8486 44.2549C20.8627 45.2212 20.8465 46.804 21.8125 47.79L18.6406 50.8984C17.7345 49.9748 16.2875 49.9036 15.2979 50.6943L15.1064 50.8643L8.36328 57.4727C7.37748 58.4391 7.36178 60.0218 8.32812 61.0078L5.15625 64.1162C4.44179 63.3876 3.39103 63.1901 2.49316 63.5264L2.5 63.4072V51.8779C2.49983 50.4974 1.38061 49.3779 0 49.3779V42.8496C1.38071 42.8496 2.5 41.7303 2.5 40.3496V28.8213C2.5 27.4406 1.38071 26.3213 0 26.3213V19.793C1.29426 19.793 2.35907 18.8093 2.4873 17.5488L2.5 17.293V11.5283C2.50001 10.9338 2.55971 10.3452 2.67676 9.77051C2.84027 8.96754 2.59678 8.17868 2.09082 7.61035C2.7722 7.58171 3.43413 7.27826 3.89746 6.72852L4.05273 6.52539C4.30137 6.16134 4.57791 5.81309 4.88184 5.48438L5.19531 5.16211C5.52012 4.84375 5.86691 4.55133 6.23242 4.28613L6.60352 4.03027C7.31419 3.56571 7.70823 2.80053 7.73242 2.01172C8.29943 2.56208 9.11669 2.8359 9.95117 2.67383C10.5428 2.55887 11.1491 2.5 11.7617 2.5H16.1719C17.5526 2.5 18.6719 1.38071 18.6719 0H22.4932Z" stroke="#B5B5B5" stroke-width="5" stroke-linecap="round" stroke-linejoin="round" stroke-dasharray="10 10"/>
</svg>
