<svg width="34" height="34" viewBox="0 0 34 34" fill="none" xmlns="http://www.w3.org/2000/svg">
<path d="M13.5137 21.5758C11.2489 21.5758 9.32933 20.7891 7.75494 19.2157C6.1815 17.6432 5.39478 15.7241 5.39478 13.4583C5.39478 11.1926 6.1815 9.27303 7.75494 7.69959C9.32839 6.12614 11.248 5.33989 13.5137 5.34084C15.7794 5.34178 17.6985 6.1285 19.271 7.701C20.8435 9.2735 21.6302 11.1926 21.6312 13.4583C21.6312 14.4424 21.4569 15.3949 21.1084 16.3158C20.7599 17.2366 20.3019 18.0243 19.7343 18.6788L28.1054 27.047C28.2376 27.1792 28.3084 27.3421 28.3179 27.5358C28.3264 27.7275 28.2555 27.8989 28.1054 28.05C27.9542 28.2011 27.7871 28.2767 27.6039 28.2767C27.4206 28.2767 27.2535 28.2011 27.1024 28.05L18.7327 19.6803C18.0244 20.2838 17.2098 20.7509 16.2889 21.0814C15.3681 21.412 14.4426 21.5773 13.5123 21.5773M13.5123 20.1606C15.3917 20.1606 16.9789 19.5136 18.2737 18.2198C19.5676 16.9259 20.2145 15.3387 20.2145 13.4583C20.2145 11.5779 19.5681 9.99128 18.2751 8.69834C16.9822 7.40539 15.3955 6.75845 13.5151 6.7575C11.6347 6.7575 10.0476 7.40445 8.75369 8.69834C7.4598 9.99223 6.81239 11.5789 6.81144 13.4583C6.8105 15.3378 7.45744 16.9244 8.75228 18.2183C10.0471 19.5122 11.6338 20.1592 13.5123 20.1592" fill="black"/>
</svg>
